<?xml version="1.0"?>
<svg xmlns:rdf="http://www.w3.org/1999/02/22-rdf-syntax-ns#" xmlns="http://www.w3.org/2000/svg" xmlns:cc="http://web.resource.org/cc/" xmlns:xlink="http://www.w3.org/1999/xlink" xmlns:dc="http://purl.org/dc/elements/1.1/" xmlns:svg="http://www.w3.org/2000/svg" id="svg2" viewBox="0 0 499.99999 500.00001" version="1.1">
  <title id="title3871">Shopping Cart</title>
  <g id="Layer_1" fill-rule="evenodd" transform="translate(22.606 22.606)">
    <path id="path13" d="m227.39-19.217h-227.09c-10.781 0-19.521 8.7401-19.521 19.521v454.18c0 10.78 8.7401 19.521 19.521 19.521h454.18c10.781 0 19.521-8.7411 19.521-19.521v-454.18c0-10.781-8.7401-19.521-19.521-19.521h-227.09z" stroke="#000" stroke-width="6.7782" fill="#fff"/>
    <g id="g3856" transform="matrix(1.2454 0 0 1.2454 -56.885 -82.591)">
      <path id="path101" d="m342.19 335.38c13.553 0 24.553 10.999 24.553 24.552s-11 24.552-24.553 24.552-24.552-10.999-24.552-24.552 11-24.552 24.552-24.552"/>
      <path id="path103" fill="#fff" d="m342.19 345.93c7.73 0 14.004 6.273 14.004 14.004s-6.273 14.004-14.004 14.004c-7.729 0-14.004-6.273-14.004-14.004s6.275-14.004 14.004-14.004"/>
      <path id="path105" d="m124.51 335.38c13.553 0 24.553 10.999 24.553 24.552s-11 24.552-24.553 24.552-24.552-10.999-24.552-24.552 10.999-24.552 24.552-24.552"/>
      <path id="path107" fill="#fff" d="m124.51 345.93c7.73 0 14.004 6.273 14.004 14.004s-6.273 14.004-14.004 14.004-14.004-6.273-14.004-14.004 6.273-14.004 14.004-14.004"/>
      <path id="path109" d="m73.666 351.1 41.292-27.036 233.6 0.108-34.704-27.828-229.14 0.252-1.512-131.58 277.78-39.96 1.656 10.152-18.899 5.508-16.488 155.88 33.66 27.468v10.296l-246.92 0.469-34.309 24.659-6.011-8.388z"/>
      <path id="path111" fill="#fff" d="m333.51 139.35-239.5 35.02 1.004 109.95 222.7-1.05 15.8-143.92z"/>
      <path id="path113" d="m121.83 165.45h7.884v123.66h-7.884v-123.66z"/>
      <path id="path115" d="m176.44 156.52h7.885v132.59h-7.885v-132.59z"/>
      <path id="path117" d="m229.33 148.96h7.92v140.15h-7.92v-140.15z"/>
      <path id="path119" d="m285.67 144.13h7.92v144.97h-7.92v-144.97z"/>
      <path id="path121" d="m326.89 245.33h-236.48v7.884h236.48v-7.884z"/>
      <path id="path123" d="m330.35 199.65h-239.94v7.884h239.94v-7.884z"/>
      <path id="path125" d="m368.11 113.33c8.148 0 14.761 6.612 14.761 14.76s-6.612 14.76-14.761 14.76c-8.147 0-14.76-6.612-14.76-14.76s6.613-14.76 14.76-14.76"/>
    </g>
  </g>
  <metadata>
    <rdf:RDF>
      <cc:Work>
        <dc:format>image/svg+xml</dc:format>
        <dc:type rdf:resource="http://purl.org/dc/dcmitype/StillImage"/>
        <cc:license rdf:resource="http://creativecommons.org/licenses/publicdomain/"/>
        <dc:publisher>
          <cc:Agent rdf:about="http://openclipart.org/">
            <dc:title>Openclipart</dc:title>
          </cc:Agent>
        </dc:publisher>
        <dc:title>Hotel Icon Near Shopping</dc:title>
        <dc:date>2010-04-23T19:42:15</dc:date>
        <dc:description>Hotel Icons. Originally done for a request, this set has been re-mixed to simple black and white versions. </dc:description>
        <dc:source>http://openclipart.org/detail/50425/hotel-icon-near-shopping-by-gerald_g</dc:source>
        <dc:creator>
          <cc:Agent>
            <dc:title>Gerald_G</dc:title>
          </cc:Agent>
        </dc:creator>
        <dc:subject>
          <rdf:Bag>
            <rdf:li>cart</rdf:li>
            <rdf:li>clip art</rdf:li>
            <rdf:li>clipart</rdf:li>
            <rdf:li>hotel</rdf:li>
            <rdf:li>icon</rdf:li>
            <rdf:li>services</rdf:li>
            <rdf:li>shopping</rdf:li>
          </rdf:Bag>
        </dc:subject>
      </cc:Work>
      <cc:License rdf:about="http://creativecommons.org/licenses/publicdomain/">
        <cc:permits rdf:resource="http://creativecommons.org/ns#Reproduction"/>
        <cc:permits rdf:resource="http://creativecommons.org/ns#Distribution"/>
        <cc:permits rdf:resource="http://creativecommons.org/ns#DerivativeWorks"/>
      </cc:License>
    </rdf:RDF>
  </metadata>
</svg>
